<svg width="9" height="43" viewBox="0 0 9 43" fill="none" xmlns="http://www.w3.org/2000/svg">
<path fill-rule="evenodd" clip-rule="evenodd" d="M4.21916 19.6867C4.45114 19.4934 4.87645 19.7254 5.03111 19.5321C5.10843 19.4161 5.06977 19.1454 5.03111 18.9908C4.95378 18.7588 4.64447 18.5655 4.29649 18.6428C4.14184 18.6815 4.02584 18.7588 3.90985 18.7975C3.79386 18.8361 3.67787 18.8748 3.56188 18.9135C2.98192 19.0294 2.55662 18.7588 2.01532 18.8748C1.97666 18.8748 1.86067 18.8748 1.822 18.9135C1.70601 19.0294 1.822 19.6481 1.86067 19.8027C1.938 20.0734 2.01532 20.344 2.13131 20.5373C2.28596 20.8466 2.51795 21.156 2.6726 21.5039C2.82726 21.8906 2.90459 22.3932 2.90459 23.0118C2.90459 25.061 3.05925 27.1102 2.94325 29.1207C2.90459 29.546 2.90459 29.9327 2.90459 30.3193C2.90459 30.706 2.98191 31.0539 3.05924 31.4019C3.09791 31.6339 3.05924 31.9819 3.09791 32.2912C3.09791 32.5618 3.05924 32.9871 3.29123 33.0258C3.48455 33.0258 3.44589 32.8325 3.56188 32.7165C3.67787 32.6392 3.87119 32.6778 3.94852 32.5618C4.02585 32.4072 3.87118 32.2139 3.83252 32.0592C3.75519 31.8272 3.67787 31.5179 3.67787 31.2473C3.6392 30.358 3.71654 29.4687 3.7552 28.6568C3.79386 27.8062 3.90985 26.9942 3.90985 26.1436C3.90985 25.177 3.87119 24.3264 3.87119 23.5145C3.87119 23.0505 3.83252 22.7025 3.90985 22.2772C3.94852 22.0839 3.98718 21.9292 4.06451 21.7359C4.10317 21.5813 4.21916 21.4266 4.21916 21.272C4.25782 20.7307 3.94851 20.112 4.21916 19.6867Z" fill="#F9F9F7" stroke="#4A4A49" stroke-width="0.25" stroke-miterlimit="10"/>
<path fill-rule="evenodd" clip-rule="evenodd" d="M4.95378 19.6863C4.76046 19.609 4.29648 19.7637 4.21915 19.9183C4.14183 20.073 4.18049 20.305 4.21915 20.5369C4.25782 20.7303 4.29649 20.9622 4.29649 21.1169C4.29649 21.3489 4.1805 21.5035 4.14183 21.7355C4.14183 21.8129 4.1805 21.8902 4.1805 22.0062C4.1805 22.0835 4.14184 22.1995 4.1805 22.2768C4.21916 22.7408 4.56714 23.0501 4.56714 23.4367C4.56714 23.6301 4.45114 23.8234 4.45114 24.0167C4.45114 24.21 4.52848 24.4033 4.56714 24.6353C4.6058 24.8286 4.64446 25.0606 4.68313 25.254C4.76045 25.6406 4.87645 26.0659 4.87645 26.4912C4.91511 26.8778 4.91511 27.3031 4.87645 27.7284C4.87645 27.9991 4.79911 28.2697 4.79911 28.579C4.76045 29.159 4.76046 29.7776 4.72179 30.3576C4.68313 30.8602 4.6058 31.2469 4.45114 31.6335C4.37381 31.7882 4.33515 31.9428 4.29649 32.0975C4.21916 32.2521 4.02584 32.4454 4.0645 32.6001C4.0645 32.6774 4.18049 32.7548 4.25782 32.7934C4.33515 32.8321 4.45115 32.7934 4.56714 32.8321C4.64447 32.8707 4.76045 32.9094 4.87645 32.9867C4.99244 33.0254 5.14709 33.0641 5.18575 33.1027C5.26308 33.1414 5.34041 33.2574 5.41774 33.3734C5.4564 33.4507 5.53373 33.644 5.64973 33.644C5.80438 33.6827 5.9977 33.3347 6.03636 33.2187C6.07503 33.0254 6.03636 32.7161 5.9977 32.4841C5.76571 30.8216 5.95904 28.8497 5.88171 27.1485C5.80438 25.6793 5.49507 24.3647 5.26309 23.0114C5.22442 22.7795 5.18576 22.5861 5.10843 22.3542C5.06977 22.1222 4.99244 21.8902 4.95378 21.6969C4.91512 21.3876 4.99244 21.0396 5.06977 20.8463C5.14709 20.6529 5.30175 20.4596 5.30175 20.2276C5.30175 19.9183 5.06977 19.8797 4.95378 19.6863Z" fill="#F9F9F7" stroke="#4A4A49" stroke-width="0.25" stroke-miterlimit="10"/>
<path fill-rule="evenodd" clip-rule="evenodd" d="M1.59002 19.1066C1.70601 18.9906 1.70601 18.7586 1.86067 18.6813C2.44063 18.6427 3.05924 18.836 3.6392 18.72C3.83252 18.6813 3.98718 18.604 4.14184 18.5653C4.33516 18.5267 4.68313 18.5653 4.83779 18.604C4.99244 18.6426 5.10844 18.952 5.26309 18.8746C5.37908 18.836 5.34042 18.5653 5.34042 18.4493C5.30176 18.3333 5.18577 18.2173 5.1471 18.1014C4.95378 17.7534 4.68314 17.4054 4.56714 17.0574C4.37383 16.5161 4.29649 15.8588 4.33516 15.1242C4.37382 14.4669 4.56714 13.9256 4.64447 13.2684C4.76046 12.6497 4.79913 12.0311 4.91512 11.3738C4.99245 10.7939 5.18576 10.2139 5.26309 9.55662C5.45641 8.28071 5.64973 7.08213 5.84305 5.80622C5.92038 5.18759 6.07504 4.53031 6.30702 4.105C6.38435 3.98901 6.50034 3.87302 6.57766 3.71836C6.65499 3.60237 6.77099 3.44772 6.80965 3.29306C6.88698 2.94508 6.73232 2.59711 6.80965 2.32646C6.65499 2.13314 6.42301 2.01715 6.19102 1.90115C5.9977 1.43719 5.64973 1.05055 5.06977 1.01189C4.41248 0.934557 3.79387 1.24387 3.60055 1.66917C3.3299 2.28779 3.63921 3.02241 3.94852 3.37039C4.02585 3.44771 4.10318 3.52504 4.14184 3.60237C4.21917 3.79569 4.29649 4.14366 4.33516 4.41431C4.45115 5.30358 4.33515 6.34751 4.21916 7.19811C4.14183 7.73941 4.02585 8.35803 3.94852 8.93799C3.67787 10.6779 3.40722 12.4178 3.05924 14.0803C2.82726 15.1629 2.55662 16.3228 2.05399 17.0961C1.89933 17.3281 1.706 17.5214 1.51268 17.792C1.39669 17.9854 1.04872 18.2947 1.01006 18.488C0.971392 18.7586 1.04872 19.068 1.16471 19.1066C1.2807 19.1066 1.3967 19.1066 1.59002 19.1066Z" fill="#F9F9F7" stroke="#4A4A49" stroke-width="0.25" stroke-miterlimit="10"/>
<path fill-rule="evenodd" clip-rule="evenodd" d="M4.25783 33.4509C4.48982 33.5282 4.48982 33.8375 4.52849 34.1082C4.72181 34.1468 4.83779 33.9922 4.87646 33.8375C4.99245 33.7988 5.10845 33.7602 5.14711 33.6442C5.18578 33.2962 4.95379 33.2962 4.68314 33.1802C4.45116 33.0642 4.2965 32.8709 3.94853 32.9096C3.83253 32.9096 3.36857 33.1029 3.40723 33.2575C3.40723 33.3349 3.56188 33.3349 3.63921 33.3735C3.7552 33.4122 3.83253 33.5282 3.94853 33.5669C4.10318 33.6442 4.21917 33.5282 4.25783 33.4509Z" fill="#F9F9F7" stroke="#4A4A49" stroke-width="0.25" stroke-miterlimit="10"/>
<path fill-rule="evenodd" clip-rule="evenodd" d="M2.74993 34.1081C2.82726 34.1855 2.94325 34.2241 3.13657 34.1855C3.29123 33.9535 3.60054 33.7602 3.7552 33.5669C3.63921 33.4895 3.48455 33.3349 3.36856 33.3735C3.25257 33.3735 3.13657 33.5282 3.05924 33.6055C2.90459 33.7602 2.7886 33.9535 2.74993 34.1081Z" fill="#F9F9F7" stroke="#4A4A49" stroke-width="0.25" stroke-miterlimit="10"/>
<path fill-rule="evenodd" clip-rule="evenodd" d="M3.94852 33.7214C3.90985 34.0307 3.94851 34.6107 4.21916 34.6493C4.64446 34.7267 4.52848 33.6441 4.33516 33.5281C4.1805 33.6054 4.06451 33.6827 3.94852 33.7214Z" fill="#F9F9F7" stroke="#4A4A49" stroke-width="0.25" stroke-miterlimit="10"/>
<path fill-rule="evenodd" clip-rule="evenodd" d="M4.91512 33.9148C4.79913 34.1081 4.95378 34.3787 5.10844 34.3787C5.30176 34.4174 5.57241 34.1854 5.72707 34.1467C5.80439 33.8761 5.64973 33.5281 5.37908 33.6054C5.18576 33.6828 5.10844 33.9148 4.91512 33.9148Z" fill="#F9F9F7" stroke="#4A4A49" stroke-width="0.25" stroke-miterlimit="10"/>
<path fill-rule="evenodd" clip-rule="evenodd" d="M3.3299 34.5721C3.52322 34.5335 3.67788 34.5335 3.79387 34.4175C3.90986 34.3015 3.90986 33.8375 3.87119 33.6829C3.60054 33.8375 3.09791 34.1082 3.3299 34.5721Z" fill="#F9F9F7" stroke="#4A4A49" stroke-width="0.25" stroke-miterlimit="10"/>
<path fill-rule="evenodd" clip-rule="evenodd" d="M5.18576 34.4945C5.18576 34.8425 5.53375 34.8811 5.72707 35.0358C6.07505 35.3451 6.30702 35.6931 6.57767 36.1184C6.53901 36.273 6.50035 36.5437 6.655 36.621C6.77099 36.5437 6.88698 36.389 7.11896 36.4664C7.31228 36.389 7.42828 36.2344 7.35095 36.041C7.31228 35.9637 7.27363 35.9637 7.23496 35.8864C7.15763 35.7704 7.0803 35.6544 7.00298 35.5384C6.77099 35.2291 6.46168 34.8425 6.2297 34.5332C6.26836 34.2625 6.15237 34.1852 5.99771 34.1078C5.84305 34.0305 5.80439 34.2625 5.64974 34.3398C5.49508 34.4172 5.26309 34.3398 5.18576 34.4945Z" fill="#F9F9F7" stroke="#4A4A49" stroke-width="0.25" stroke-miterlimit="10"/>
<path fill-rule="evenodd" clip-rule="evenodd" d="M4.56715 34.2629C4.52849 34.3403 4.56715 34.4563 4.56715 34.5722C4.68314 34.6496 4.95379 34.6496 4.95379 34.4949C4.95379 34.4176 4.87646 34.1856 4.76047 34.1469C4.68314 34.1083 4.64448 34.2243 4.56715 34.2629Z" fill="#F9F9F7" stroke="#4A4A49" stroke-width="0.25" stroke-miterlimit="10"/>
<path fill-rule="evenodd" clip-rule="evenodd" d="M2.74994 34.2627C2.7886 34.5334 3.02058 34.6494 3.25256 34.6494C3.25256 34.5334 3.21391 34.4174 3.17524 34.3401C3.02059 34.2627 2.86593 34.1854 2.74994 34.2627Z" fill="#F9F9F7" stroke="#4A4A49" stroke-width="0.25" stroke-miterlimit="10"/>
<path fill-rule="evenodd" clip-rule="evenodd" d="M2.47928 34.3792C2.28596 34.5338 2.28596 34.6885 2.28596 34.9978C2.28596 35.3458 2.05398 35.887 1.93799 36.1577C1.86066 36.3124 1.70601 36.3897 1.86067 36.5443C1.74468 36.931 2.16997 37.1243 2.36329 36.9696C2.44062 36.931 2.51795 36.7377 2.51795 36.6217C2.51795 36.5057 2.40196 36.4283 2.40196 36.351C2.40196 36.1964 2.47928 36.003 2.51795 35.8484C2.55661 35.6937 2.63394 35.5391 2.71127 35.4231C2.86592 35.1138 3.02058 34.9204 3.17524 34.6885C2.98192 34.6111 2.7886 34.5338 2.71127 34.3792C2.63394 34.4178 2.59527 34.3792 2.47928 34.3792Z" fill="#F9F9F7" stroke="#4A4A49" stroke-width="0.25" stroke-miterlimit="10"/>
<path fill-rule="evenodd" clip-rule="evenodd" d="M3.87119 34.5333V34.4947C3.7552 34.456 3.67788 34.6107 3.52322 34.6493C3.48456 34.6493 3.40723 34.6493 3.36857 34.688C3.29124 34.7267 3.17524 34.8427 3.13658 34.8813C3.09792 34.9586 3.13658 35.1133 3.13658 35.2293C3.09792 35.6546 2.98192 36.1186 2.86593 36.5052C2.82726 36.6599 2.74994 36.7759 2.74994 36.8532C2.74994 36.9305 2.78861 36.9692 2.78861 37.0465C2.78861 37.1238 2.78861 37.2398 2.78861 37.2785C2.86593 37.5105 3.40722 37.4718 3.44589 37.2785C3.48455 37.0852 3.3299 36.8145 3.3299 36.6212C3.29124 36.3892 3.36857 36.1186 3.40723 35.8866C3.4459 35.6546 3.48456 35.4226 3.56189 35.2293C3.67788 34.9973 3.87119 34.8813 3.87119 34.5333Z" fill="#F9F9F7" stroke="#4A4A49" stroke-width="0.25" stroke-miterlimit="10"/>
<path fill-rule="evenodd" clip-rule="evenodd" d="M4.48981 34.6492C4.45115 34.9585 4.72179 35.1132 4.79912 35.3838C4.83778 35.5771 4.83778 35.8091 4.83778 36.0411C4.87645 36.4664 4.87645 36.7757 4.79912 37.1237C4.76045 37.3557 4.68313 37.549 4.79912 37.781C4.99244 37.9356 5.61107 37.9743 5.6884 37.7036C5.6884 37.665 5.68839 37.4717 5.64973 37.3557C5.61107 37.201 5.53374 37.0464 5.45641 36.853C5.37908 36.5051 5.34041 36.0798 5.37908 35.6158C5.37908 35.3838 5.45641 35.1132 5.41774 34.9972C5.37908 34.8812 5.22442 34.8425 5.18576 34.7265C5.14709 34.6492 5.1471 34.5719 5.10844 34.5332C4.91512 34.5719 4.79912 34.7265 4.48981 34.6492Z" fill="#F9F9F7" stroke="#4A4A49" stroke-width="0.25" stroke-miterlimit="10"/>
<path fill-rule="evenodd" clip-rule="evenodd" d="M3.90985 34.5332C3.87119 34.6105 3.90985 34.6879 3.90985 34.8038C3.90985 34.8812 3.83252 34.9198 3.83252 34.9972C3.83252 35.1518 3.94852 35.4225 3.94852 35.6545C3.94852 36.0411 3.87119 36.4664 3.79386 36.853C3.7552 36.969 3.67787 37.1237 3.67787 37.201C3.67787 37.2783 3.7552 37.2783 3.7552 37.3557C3.79386 37.4717 3.79386 37.549 3.83252 37.6263C3.94851 37.7036 4.1805 37.7036 4.33516 37.665C4.41249 37.5877 4.48981 37.433 4.48981 37.2783C4.48981 37.1623 4.33516 36.8917 4.29649 36.737C4.21916 36.1958 4.37382 35.5771 4.48981 35.0745C4.45115 34.9585 4.37382 34.9198 4.37382 34.7265C4.14184 34.8039 4.06451 34.6492 3.90985 34.5332Z" fill="#F9F9F7" stroke="#4A4A49" stroke-width="0.25" stroke-miterlimit="10"/>
<path fill-rule="evenodd" clip-rule="evenodd" d="M7.15762 36.544C7.04163 36.544 6.96431 36.5053 6.84832 36.544C6.539 36.7373 6.77099 37.1626 7.0803 37.2013C7.0803 37.3173 7.19629 37.4719 7.23496 37.6266C7.23496 37.7426 7.19629 37.8586 7.31228 37.9359C7.3896 37.9359 7.38961 37.8972 7.46694 37.8586C7.66026 37.8199 7.9309 37.9746 7.9309 37.7426C7.9309 37.6266 7.81491 37.5879 7.73758 37.4719C7.69892 37.3173 7.54426 37.008 7.54426 36.8533C7.5056 36.6213 7.6216 36.4667 7.42828 36.312C7.27362 36.3507 7.23495 36.4667 7.15762 36.544Z" fill="#F9F9F7" stroke="#4A4A49" stroke-width="0.25" stroke-miterlimit="10"/>
<path fill-rule="evenodd" clip-rule="evenodd" d="M1.86067 36.9692C1.70602 37.0852 1.82201 37.3945 1.82201 37.6265C1.82201 37.8199 1.82201 38.0132 1.82201 38.1678C1.82201 38.3611 1.74468 38.5158 1.82201 38.6318C2.01533 38.5545 2.13132 38.7091 2.32463 38.6318C2.3633 38.4771 2.28598 38.3998 2.24731 38.2838C2.28598 38.0905 2.28597 37.8585 2.32463 37.6652C2.3633 37.4719 2.51796 37.3172 2.44063 37.1239C2.28598 37.1626 2.01533 37.1239 1.86067 36.9692Z" fill="#F9F9F7" stroke="#4A4A49" stroke-width="0.25" stroke-miterlimit="10"/>
<path fill-rule="evenodd" clip-rule="evenodd" d="M2.74993 39.3664C2.90459 39.3277 3.13657 39.3664 3.29122 39.3664C3.40722 39.2117 3.25257 39.0957 3.2139 38.9798C3.17524 38.8638 3.21389 38.7091 3.25256 38.5158C3.25256 38.3611 3.25256 38.1678 3.29122 38.0518C3.32989 37.9745 3.40721 37.8972 3.44588 37.8585C3.48454 37.7425 3.44588 37.5878 3.44588 37.4719C3.29122 37.4719 3.17523 37.5492 3.05924 37.5105C2.98191 37.5105 2.86593 37.3945 2.7886 37.3945C2.55661 37.4332 2.7886 37.8198 2.7886 37.9358C2.82726 38.3225 2.59528 39.0184 2.74993 39.3664Z" fill="#F9F9F7" stroke="#4A4A49" stroke-width="0.25" stroke-miterlimit="10"/>
<path fill-rule="evenodd" clip-rule="evenodd" d="M3.7552 39.7528C3.94852 39.6755 4.14184 39.6755 4.33516 39.7528C4.41249 39.6755 4.33516 39.5208 4.29649 39.4048C4.29649 38.8635 4.21916 38.2062 4.48981 37.9356C4.48981 37.8196 4.52847 37.665 4.45115 37.6263C4.25783 37.6263 4.25783 37.7036 4.06451 37.7036C3.90985 37.7036 3.67787 37.5103 3.60055 37.6649C3.52322 37.8583 3.7552 38.1676 3.7552 38.3222C3.79386 38.5156 3.71653 38.7862 3.71653 38.9795C3.71653 39.2115 3.6392 39.4048 3.6392 39.6368C3.71653 39.6755 3.71654 39.7141 3.7552 39.7528Z" fill="#F9F9F7" stroke="#4A4A49" stroke-width="0.25" stroke-miterlimit="10"/>
<path fill-rule="evenodd" clip-rule="evenodd" d="M7.54427 38.4774C7.54427 38.7481 7.6216 39.0574 7.85359 39.0187C8.08557 38.9801 8.00824 38.5548 7.85359 38.4388C7.85359 38.2454 7.89224 38.1295 7.89224 37.9748C7.62159 37.9748 7.31228 37.8588 7.31228 38.0908C7.27362 38.2454 7.46694 38.3228 7.54427 38.4774Z" fill="#F9F9F7" stroke="#4A4A49" stroke-width="0.25" stroke-miterlimit="10"/>
<path fill-rule="evenodd" clip-rule="evenodd" d="M4.68313 38.0519C4.76046 38.2452 4.83779 38.4772 4.87645 38.7092C4.91512 38.9411 4.95378 39.2891 4.91512 39.5211C4.87645 39.6758 4.7218 39.7918 4.87645 39.9464C4.99244 39.9851 5.0311 39.8691 5.18576 39.8691C5.34041 39.8691 5.45642 40.0237 5.53374 39.8691C5.57241 39.7531 5.49508 39.6371 5.45641 39.5211C5.45641 39.1731 5.41775 38.8251 5.49508 38.5158C5.53374 38.2839 5.72706 38.0519 5.53374 37.8972C5.22443 38.0519 4.83779 37.7812 4.68313 38.0519Z" fill="#F9F9F7" stroke="#4A4A49" stroke-width="0.25" stroke-miterlimit="10"/>
<path fill-rule="evenodd" clip-rule="evenodd" d="M1.822 38.709C1.86067 39.057 1.86066 39.3663 1.89932 39.637C2.01532 39.637 2.13131 39.7143 2.28596 39.6756C2.32463 39.5596 2.28597 39.4823 2.20864 39.405C2.20864 39.1343 2.2473 38.9023 2.32463 38.7477C2.28597 38.593 1.938 38.6317 1.822 38.709Z" fill="#F9F9F7" stroke="#4A4A49" stroke-width="0.25" stroke-miterlimit="10"/>
<path fill-rule="evenodd" clip-rule="evenodd" d="M2.6726 39.4825C2.6726 39.8305 2.74994 40.1784 2.74994 40.5651C2.90459 40.5651 3.13658 40.6037 3.21391 40.5651C3.25257 40.4491 3.13657 40.4104 3.09791 40.2944C3.05925 40.0238 3.17524 39.7531 3.25256 39.5598C3.2139 39.3665 2.90459 39.3665 2.6726 39.4825Z" fill="#F9F9F7" stroke="#4A4A49" stroke-width="0.25" stroke-miterlimit="10"/>
<path fill-rule="evenodd" clip-rule="evenodd" d="M3.67787 39.869C3.6392 40.217 3.79386 40.6423 3.7552 40.9903C3.7552 41.1062 3.67787 41.2222 3.7552 41.3382C3.90986 41.2996 4.14184 41.2996 4.29649 41.2996C4.33516 41.1836 4.25782 41.1449 4.21916 41.0289C4.1805 40.8743 4.25783 40.3716 4.29649 40.1783C4.29649 40.0623 4.37383 39.985 4.37383 39.9077C4.2965 39.637 3.87119 39.7143 3.67787 39.869Z" fill="#F9F9F7" stroke="#4A4A49" stroke-width="0.25" stroke-miterlimit="10"/>
<path fill-rule="evenodd" clip-rule="evenodd" d="M1.89933 39.7529C1.89933 39.8689 1.97666 39.9463 1.97666 40.0622C1.97666 40.1782 1.89933 40.5262 2.09265 40.5262C2.28596 40.5262 2.20864 40.2556 2.20864 40.0622C2.20864 39.9463 2.28596 39.9076 2.28596 39.7916C2.20864 39.7143 1.97665 39.7143 1.89933 39.7529Z" fill="#F9F9F7" stroke="#4A4A49" stroke-width="0.25" stroke-miterlimit="10"/>
<path fill-rule="evenodd" clip-rule="evenodd" d="M4.87645 40.1011C4.87645 40.3718 4.99244 40.6424 4.99244 40.8744C4.99244 41.029 4.87645 41.1837 4.99244 41.261C5.10843 41.261 5.14709 41.2224 5.18576 41.1837C5.26309 41.2224 5.30175 41.261 5.37908 41.261C5.49507 41.1837 5.37908 41.1064 5.37908 40.9904C5.34041 40.6811 5.45641 40.3331 5.49508 40.1011C5.34042 39.9465 5.03111 39.9078 4.87645 40.1011Z" fill="#F9F9F7" stroke="#4A4A49" stroke-width="0.25" stroke-miterlimit="10"/>
<path fill-rule="evenodd" clip-rule="evenodd" d="M3.09791 41.0675C3.09791 40.9129 3.21391 40.8742 3.21391 40.7196C3.09791 40.6036 2.7886 40.6036 2.74993 40.7196C2.71127 40.7969 2.82727 40.9129 2.82727 40.9902C2.86593 41.2222 2.74994 41.5315 2.98192 41.5315C3.2139 41.5315 3.25256 41.1835 3.09791 41.0675Z" fill="#F9F9F7" stroke="#4A4A49" stroke-width="0.25" stroke-miterlimit="10"/>
<path fill-rule="evenodd" clip-rule="evenodd" d="M4.9538 41.3383C5.03112 41.6863 4.79913 41.9183 4.99245 42.1503C5.03111 42.1503 5.10844 42.1889 5.18577 42.1503C5.30176 42.0729 5.41776 41.8023 5.2631 41.725C5.30177 41.6476 5.30177 41.609 5.34043 41.5316C5.3791 41.4543 5.53375 41.4156 5.49509 41.3383C5.41776 41.1837 5.03112 41.261 4.9538 41.3383Z" fill="#F9F9F7" stroke="#4A4A49" stroke-width="0.25" stroke-miterlimit="10"/>
<path fill-rule="evenodd" clip-rule="evenodd" d="M3.7552 42.0345C3.79386 42.1505 3.83253 42.3438 3.94852 42.3825C4.14184 42.4211 4.25783 42.0345 4.10317 41.9185C4.06451 41.8025 4.29649 41.6092 4.25783 41.4545C4.21916 41.2612 3.79386 41.3772 3.71653 41.5319C3.67787 41.7639 3.98718 41.8798 3.7552 42.0345Z" fill="#F9F9F7" stroke="#4A4A49" stroke-width="0.25" stroke-miterlimit="10"/>
</svg>
