<svg width="20" height="17" viewBox="0 0 20 17" fill="none" xmlns="http://www.w3.org/2000/svg">
<path d="M18.3333 2.50003H14.1667V1.66668C14.1667 0.747499 13.4192 0 12.5 0H7.49999C6.58081 0 5.83331 0.74746 5.83331 1.66668V2.5H1.66668C0.74746 2.50003 0 3.24749 0 4.16667V15C0 15.9191 0.74746 16.6666 1.66668 16.6666H18.3333C19.2525 16.6666 20 15.9192 20 15V4.16667C20 3.24749 19.2525 2.50003 18.3333 2.50003ZM6.66667 1.66668C6.66667 1.2073 7.04061 0.833358 7.49999 0.833358H12.5C12.9594 0.833358 13.3333 1.2073 13.3333 1.66668V2.5H6.66667V1.66668ZM19.1666 15C19.1666 15.4594 18.7927 15.8333 18.3333 15.8333H1.66668C1.2073 15.8333 0.833358 15.4594 0.833358 15V7.86995C2.64835 9.4499 6.91612 9.87596 8.33334 9.97471V10C8.33334 10.9192 9.0808 11.6667 10 11.6667C10.9192 11.6667 11.6667 10.9192 11.6667 10V9.97471C13.0839 9.876 17.3517 9.4499 19.1667 7.86995V15H19.1666ZM9.16666 10V9.1667C9.16666 8.70733 9.54061 8.33338 9.99998 8.33338C10.4594 8.33338 10.8333 8.70733 10.8333 9.1667V10C10.8333 10.4594 10.4594 10.8333 9.99998 10.8333C9.54061 10.8333 9.16666 10.4594 9.16666 10ZM19.1666 6.25003C19.1666 8.00096 14.7362 8.92444 11.6639 9.13932C11.6489 8.23299 10.9098 7.50002 10 7.50002C9.09022 7.50002 8.35112 8.23299 8.33612 9.13932C5.26382 8.92444 0.833397 8.00096 0.833397 6.25003V4.16671C0.833397 3.70734 1.20734 3.33339 1.66672 3.33339H18.3334C18.7927 3.33339 19.1667 3.70734 19.1667 4.16671V6.25003H19.1666Z" fill="white"/>
</svg>
